<svg xmlns="http://www.w3.org/2000/svg" width="720" height="320" viewBox="0 0 720 320" role="img" aria-label="YOLOv5n inference time in milliseconds, 1 and 4 threads">
<rect x="0.5" y="0.5" width="719" height="319" rx="10" fill="#0d1117" stroke="#3d444d"/>
<g font-family="-apple-system,BlinkMacSystemFont,'Segoe UI','Noto Sans',Helvetica,Arial,sans-serif" font-size="12.5" fill="#f0f6fc">
<text x="28" y="36" font-size="15" font-weight="600">YOLOv5n inference*, 640 × 640, FP32</text>
<text x="28" y="57" fill="#9198a1">Median in milliseconds. Lower is better.</text>
<rect x="530" y="26" width="10" height="10" rx="2" fill="#484f58"/><text x="546" y="36" fill="#9198a1">1 thread</text>
<rect x="616" y="26" width="10" height="10" rx="2" fill="#9198a1"/><text x="632" y="36" fill="#9198a1">4 threads</text>
<line x1="80" y1="118.5" x2="640" y2="118.5" stroke="#21262d"/><text x="72" y="122" text-anchor="end" font-size="11" fill="#9198a1">200</text>
<line x1="80" y1="190.5" x2="640" y2="190.5" stroke="#21262d"/><text x="72" y="194" text-anchor="end" font-size="11" fill="#9198a1">100</text>
<line x1="80" y1="262.5" x2="640" y2="262.5" stroke="#3d444d"/><text x="72" y="266" text-anchor="end" font-size="11" fill="#9198a1">0 ms</text>
<path d="M132,262V89Q132,85 136,85H172Q176,85 176,89V262Z" fill="#7a4520"/><text x="154" y="77" text-anchor="middle" font-family="ui-monospace,SFMono-Regular,Menlo,Consolas,monospace" font-size="12">245.3</text>
<path d="M184,262V182Q184,178 188,178H224Q228,178 228,182V262Z" fill="#f0883e"/><text x="206" y="170" text-anchor="middle" font-family="ui-monospace,SFMono-Regular,Menlo,Consolas,monospace" font-size="12">116.2</text>
<text x="180" y="289" text-anchor="middle" font-size="13.5" font-weight="600" fill="#f0883e">Bend-Conv</text>
<path d="M312,262V105Q312,101 316,101H352Q356,101 356,105V262Z" fill="#484f58"/><text x="334" y="93" text-anchor="middle" font-family="ui-monospace,SFMono-Regular,Menlo,Consolas,monospace" font-size="12">223.0</text>
<path d="M364,262V99Q364,95 368,95H404Q408,95 408,99V262Z" fill="#9198a1"/><text x="386" y="87" text-anchor="middle" font-family="ui-monospace,SFMono-Regular,Menlo,Consolas,monospace" font-size="12">232.1</text>
<text x="360" y="289" text-anchor="middle" font-size="13.5" font-weight="600" fill="#9198a1">NumPy / OpenBLAS</text>
<path d="M492,262V199Q492,195 496,195H532Q536,195 536,199V262Z" fill="#484f58"/><text x="514" y="187" text-anchor="middle" font-family="ui-monospace,SFMono-Regular,Menlo,Consolas,monospace" font-size="12">92.7</text>
<path d="M544,262V233Q544,229 548,229H584Q588,229 588,233V262Z" fill="#9198a1"/><text x="566" y="221" text-anchor="middle" font-family="ui-monospace,SFMono-Regular,Menlo,Consolas,monospace" font-size="12">45.3</text>
<text x="540" y="289" text-anchor="middle" font-size="13.5" font-weight="600" fill="#9198a1">PyTorch</text>
</g>
</svg>
